<svg width="125" height="125" viewBox="0 0 125 125" fill="none" xmlns="http://www.w3.org/2000/svg">
<circle cx="62.5" cy="62.5" r="57.5" stroke="url(#paint0_linear_48_54)" stroke-width="10"/>
<path d="M62.4158 97.605C61.9616 97.6077 61.5113 97.5193 61.0908 97.3448C60.6703 97.1704 60.2878 96.9134 59.9654 96.5886L33.1487 69.3197C29.7849 65.8679 27.898 61.2076 27.898 56.3512C27.898 51.4947 29.7849 46.8345 33.1487 43.3827C36.5387 39.9496 41.131 38.0217 45.9185 38.0217C50.7061 38.0217 55.2983 39.9496 58.6884 43.3827L62.4158 47.1681L66.1432 43.3827C69.5333 39.9496 74.1255 38.0217 78.9131 38.0217C83.7006 38.0217 88.2928 39.9496 91.6829 43.3827C95.0467 46.8345 96.9335 51.4947 96.9335 56.3512C96.9335 61.2076 95.0467 65.8679 91.6829 69.3197L64.8662 96.5886C64.5437 96.9134 64.1613 97.1704 63.7408 97.3448C63.3203 97.5193 62.87 97.6077 62.4158 97.605ZM45.9185 45.03C44.4575 45.0233 43.0097 45.311 41.6589 45.8766C40.3082 46.4421 39.0814 47.2742 38.0495 48.3247C35.9651 50.4527 34.7951 53.3321 34.7951 56.3336C34.7951 59.3352 35.9651 62.2146 38.0495 64.3426L62.4158 89.1229L86.7821 64.3426C88.8664 62.2146 90.0365 59.3352 90.0365 56.3336C90.0365 53.3321 88.8664 50.4527 86.7821 48.3247C84.6549 46.2838 81.8394 45.1467 78.9131 45.1467C75.9867 45.1467 73.1712 46.2838 71.0441 48.3247L64.8662 54.6337C64.5454 54.9622 64.1637 55.223 63.7431 55.4009C63.3225 55.5789 62.8714 55.6705 62.4158 55.6705C61.9602 55.6705 61.5091 55.5789 61.0885 55.4009C60.6679 55.223 60.2862 54.9622 59.9654 54.6337L53.7875 48.3247C52.7557 47.2742 51.5288 46.4421 50.1781 45.8766C48.8273 45.311 47.3795 45.0233 45.9185 45.03Z" fill="url(#paint1_linear_48_54)"/>
<defs>
<linearGradient id="paint0_linear_48_54" x1="-6.17646e-07" y1="74.8668" x2="125.007" y2="74.3731" gradientUnits="userSpaceOnUse">
<stop stop-color="#582C6E"/>
<stop offset="0.348958" stop-color="#603596"/>
<stop offset="0.635417" stop-color="#5F559D"/>
<stop offset="1" stop-color="#5B9AAE"/>
</linearGradient>
<linearGradient id="paint1_linear_48_54" x1="27.898" y1="73.7082" x2="96.9373" y2="73.3923" gradientUnits="userSpaceOnUse">
<stop stop-color="#582C6E"/>
<stop offset="0.348958" stop-color="#603596"/>
<stop offset="0.635417" stop-color="#5F559D"/>
<stop offset="1" stop-color="#5B9AAE"/>
</linearGradient>
</defs>
</svg>
