<svg width="125" height="125" viewBox="0 0 125 125" fill="none" xmlns="http://www.w3.org/2000/svg">
<circle cx="62.5" cy="62.5" r="57.5" stroke="url(#paint0_linear_48_56)" stroke-width="10"/>
<path d="M67.35 74.4126H81.9V79.2626H67.35V74.4126Z" fill="url(#paint1_linear_48_56)"/>
<path d="M67.35 67.1375H81.9V71.9875H67.35V67.1375Z" fill="url(#paint2_linear_48_56)"/>
<path d="M43.1 50.2595H57.65V55.1095H43.1V50.2595Z" fill="url(#paint3_linear_48_56)"/>
<path d="M86.75 34.4H38.25C35.5825 34.4 33.4 36.5825 33.4 39.25V87.75C33.4 90.4175 35.5825 92.6 38.25 92.6H86.75C89.4175 92.6 91.6 90.4175 91.6 87.75V39.25C91.6 36.5825 89.4175 34.4 86.75 34.4ZM86.75 87.75H38.25V39.25H86.75V87.75Z" fill="url(#paint4_linear_48_56)"/>
<path d="M50.375 82.9001H55.225V75.6251H62.5V70.7751H55.225V63.5001H50.375V70.7751H43.1V75.6251H50.375V82.9001Z" fill="url(#paint5_linear_48_56)"/>
<path d="M69.484 61.2691L74.625 56.0796L79.766 61.2691L83.2095 57.8256L78.0685 52.6846L83.2095 47.5436L79.766 44.1001L74.625 49.2411L69.484 44.1001L66.0405 47.5436L71.1815 52.6846L66.0405 57.8256L69.484 61.2691Z" fill="url(#paint6_linear_48_56)"/>
<defs>
<linearGradient id="paint0_linear_48_56" x1="-6.17646e-07" y1="74.8668" x2="125.007" y2="74.3731" gradientUnits="userSpaceOnUse">
<stop stop-color="#582C6E"/>
<stop offset="0.348958" stop-color="#603596"/>
<stop offset="0.635417" stop-color="#5F559D"/>
<stop offset="1" stop-color="#5B9AAE"/>
</linearGradient>
<linearGradient id="paint1_linear_48_56" x1="67.35" y1="77.3174" x2="81.899" y2="77.145" gradientUnits="userSpaceOnUse">
<stop stop-color="#582C6E"/>
<stop offset="0.348958" stop-color="#603596"/>
<stop offset="0.635417" stop-color="#5F559D"/>
<stop offset="1" stop-color="#5B9AAE"/>
</linearGradient>
<linearGradient id="paint2_linear_48_56" x1="67.35" y1="70.0423" x2="81.899" y2="69.8699" gradientUnits="userSpaceOnUse">
<stop stop-color="#582C6E"/>
<stop offset="0.348958" stop-color="#603596"/>
<stop offset="0.635417" stop-color="#5F559D"/>
<stop offset="1" stop-color="#5B9AAE"/>
</linearGradient>
<linearGradient id="paint3_linear_48_56" x1="43.1" y1="53.1644" x2="57.649" y2="52.992" gradientUnits="userSpaceOnUse">
<stop stop-color="#582C6E"/>
<stop offset="0.348958" stop-color="#603596"/>
<stop offset="0.635417" stop-color="#5F559D"/>
<stop offset="1" stop-color="#5B9AAE"/>
</linearGradient>
<linearGradient id="paint4_linear_48_56" x1="33.4" y1="69.258" x2="91.6035" y2="69.0281" gradientUnits="userSpaceOnUse">
<stop stop-color="#582C6E"/>
<stop offset="0.348958" stop-color="#603596"/>
<stop offset="0.635417" stop-color="#5F559D"/>
<stop offset="1" stop-color="#5B9AAE"/>
</linearGradient>
<linearGradient id="paint5_linear_48_56" x1="43.1" y1="75.1195" x2="62.5011" y2="75.0428" gradientUnits="userSpaceOnUse">
<stop stop-color="#582C6E"/>
<stop offset="0.348958" stop-color="#603596"/>
<stop offset="0.635417" stop-color="#5F559D"/>
<stop offset="1" stop-color="#5B9AAE"/>
</linearGradient>
<linearGradient id="paint6_linear_48_56" x1="66.0405" y1="54.3832" x2="83.2105" y2="54.3154" gradientUnits="userSpaceOnUse">
<stop stop-color="#582C6E"/>
<stop offset="0.348958" stop-color="#603596"/>
<stop offset="0.635417" stop-color="#5F559D"/>
<stop offset="1" stop-color="#5B9AAE"/>
</linearGradient>
</defs>
</svg>
