<svg width="611" height="611" viewBox="0 0 611 611" fill="none" xmlns="http://www.w3.org/2000/svg">
<path d="M304.339 586.756C466.745 586.756 598.401 510.74 598.401 416.971C598.401 323.201 466.745 247.186 304.339 247.186C141.933 247.186 10.277 323.201 10.277 416.971C10.277 510.74 141.933 586.756 304.339 586.756Z" fill="#FAFAFA"/>
<path d="M465.423 526.218C497.96 526.218 524.336 510.992 524.336 492.209C524.336 473.427 497.96 458.201 465.423 458.201C432.887 458.201 406.511 473.427 406.511 492.209C406.511 510.992 432.887 526.218 465.423 526.218Z" fill="#E0E0E0"/>
<path d="M82.4361 476.971L34.1305 449.085C31.4054 447.509 31.4054 444.967 34.1305 443.39L315.117 281.158C316.647 280.39 318.336 279.99 320.048 279.99C321.76 279.99 323.448 280.39 324.979 281.158L373.297 309.056C376.022 310.62 376.022 313.174 373.297 314.751L92.3099 476.971C90.7802 477.748 89.0887 478.153 87.373 478.153C85.6573 478.153 83.9658 477.748 82.4361 476.971Z" fill="#E0E0E0"/>
<path d="M256.082 427.272L297.63 403.26C301.92 400.816 304.058 397.541 304.058 394.303C304.058 391.064 304.058 388.535 304.058 388.535L260.97 364.229C259.768 363.444 258.767 362.387 258.049 361.142C257.332 359.898 256.917 358.503 256.84 357.068V305.867L184.302 347.781V398.983C184.381 400.417 184.797 401.812 185.514 403.056C186.231 404.299 187.231 405.357 188.432 406.144L225.092 427.272C233.634 432.209 247.516 432.209 256.082 427.272Z" fill="#263238"/>
<path d="M201.703 408.05V413.806L188.408 406.144C187.208 405.357 186.209 404.299 185.494 403.055C184.778 401.811 184.366 400.416 184.29 398.983V347.793L198.098 339.814C198.392 343.321 198.697 346.95 198.99 350.482L189.3 356.091V396.099C189.373 397.534 189.785 398.932 190.503 400.177C191.221 401.422 192.224 402.478 193.43 403.26L201.703 408.05Z" fill="black"/>
<path d="M189.3 396.111C189.377 397.546 189.792 398.941 190.509 400.185C191.227 401.43 192.228 402.487 193.43 403.272L225.068 421.492C233.622 426.441 247.516 426.441 256.082 421.492L297.63 397.492C306.184 392.604 306.184 384.539 297.63 379.59L265.968 361.345C264.764 360.562 263.761 359.505 263.043 358.261C262.326 357.016 261.912 355.619 261.838 354.185V314.188L189.312 356.103L189.3 396.111Z" fill="#37474F"/>
<path d="M274.388 366.221L265.968 361.333C264.764 360.55 263.761 359.493 263.043 358.249C262.326 357.004 261.912 355.607 261.838 354.172V314.188L189.3 356.103V396.111C189.377 397.546 189.792 398.941 190.509 400.185C191.227 401.43 192.228 402.487 193.43 403.272L201.703 408.038L274.388 366.221Z" fill="#263238"/>
<path d="M304.046 388.596V394.376C304.046 397.614 301.895 400.84 297.618 403.321L256.07 427.321C251.517 429.75 246.432 431.01 241.272 430.987V425.232C246.433 425.26 251.519 424 256.07 421.566L297.618 397.541C301.895 395.024 304.046 391.785 304.046 388.596Z" fill="#455A64"/>
<path d="M72.8312 445.835C74.3968 446.591 76.1186 446.969 77.8572 446.937C79.5958 446.905 81.3025 446.465 82.8394 445.651L363.362 283.687C364.868 282.71 366.122 281.39 367.02 279.835C367.919 278.281 368.436 276.535 368.531 274.742V47.0714C368.461 45.3299 367.982 43.6294 367.132 42.1073C366.283 40.5852 365.088 39.2843 363.643 38.3097C362.077 37.553 360.355 37.1753 358.617 37.2072C356.878 37.239 355.172 37.6795 353.635 38.493L73.1489 200.408C71.6446 201.387 70.3925 202.708 69.4944 204.262C68.5962 205.816 68.0773 207.561 67.9799 209.353V437.073C68.046 438.811 68.5194 440.51 69.362 442.031C70.2047 443.553 71.393 444.856 72.8312 445.835Z" fill="#455A64"/>
<path d="M82.8394 445.639L363.362 283.687C364.866 282.708 366.118 281.387 367.016 279.833C367.914 278.279 368.433 276.535 368.531 274.742V47.0715C368.531 43.7721 366.221 42.4401 363.362 44.0898L82.8516 206.041C81.3473 207.021 80.0952 208.341 79.197 209.896C78.2989 211.45 77.78 213.194 77.6825 214.986V442.657C77.6825 445.957 79.9921 447.252 82.8394 445.639Z" fill="#CFA0EE"/>
<path d="M82.8394 445.639L363.362 283.687C364.866 282.708 366.118 281.387 367.016 279.833C367.914 278.279 368.433 276.535 368.531 274.742V47.0715C368.531 43.7721 366.221 42.4401 363.362 44.0898L82.8516 206.041C81.3473 207.021 80.0952 208.341 79.197 209.896C78.2989 211.45 77.78 213.194 77.6825 214.986V442.657C77.6825 445.957 79.9921 447.252 82.8394 445.639Z" fill="#37474F"/>
<path d="M82.0817 451.541C80.6139 452.174 79.0272 452.484 77.4291 452.45C75.831 452.417 74.2588 452.04 72.819 451.346C71.3723 450.37 70.1759 449.067 69.3267 447.543C68.4775 446.018 67.9993 444.315 67.931 442.572V421.908L77.6214 427.517V448.181C77.6703 451.187 79.5766 452.543 82.0817 451.541Z" fill="#263238"/>
<path d="M77.6703 427.517V448.168C77.6703 451.468 79.9799 452.8 82.8272 451.15L363.362 289.198C364.868 288.218 366.121 286.895 367.019 285.339C367.917 283.782 368.435 282.036 368.531 280.241V259.553L77.6703 427.517Z" fill="#37474F"/>
<path opacity="0.2" d="M77.6825 427.468V448.168C77.6825 451.468 79.9921 452.8 82.8394 451.15L363.362 289.198C364.868 288.218 366.121 286.895 367.019 285.339C367.917 283.782 368.435 282.036 368.531 280.241V259.553L77.6825 427.468Z" fill="black"/>
<path d="M87.373 401.586V218.213C87.4318 217.136 87.7434 216.087 88.2827 215.153C88.8219 214.219 89.5736 213.425 90.4769 212.836L355.724 59.6947C357.447 58.7048 358.828 59.5114 358.828 61.4788V244.864C358.769 245.941 358.458 246.989 357.918 247.923C357.379 248.858 356.627 249.652 355.724 250.241L90.428 403.382C88.7539 404.372 87.373 403.565 87.373 401.586Z" fill="#CFA0EE"/>
<path opacity="0.3" d="M87.373 401.586V218.213C87.4318 217.136 87.7434 216.087 88.2827 215.153C88.8219 214.219 89.5736 213.425 90.4769 212.836L355.724 59.6947C357.447 58.7048 358.828 59.5114 358.828 61.4788V244.864C358.769 245.941 358.458 246.989 357.918 247.923C357.379 248.858 356.627 249.652 355.724 250.241L90.428 403.382C88.7539 404.372 87.373 403.565 87.373 401.586Z" fill="black"/>
<path d="M223.101 350.103C221.683 351.019 220.501 352.257 219.652 353.716C218.803 355.174 218.309 356.813 218.213 358.498C218.213 361.59 220.388 362.848 223.101 361.297C224.52 360.382 225.702 359.144 226.552 357.685C227.401 356.226 227.894 354.587 227.989 352.901C227.952 349.81 225.777 348.551 223.101 350.103Z" fill="#455A64"/>
<path d="M79.1978 209.878C78.2774 211.43 77.7528 213.184 77.6703 214.986V427.517L67.9799 421.908V209.402C68.0506 207.598 68.576 205.841 69.5074 204.294L79.1978 209.878Z" fill="#263238"/>
<path d="M407.598 45.996C407.181 45.7861 406.715 45.6945 406.249 45.7311C405.784 45.7678 405.338 45.9312 404.959 46.2038L125.377 207.667C124.315 208.349 123.429 209.272 122.792 210.361C122.155 211.451 121.785 212.676 121.711 213.936V402.429C121.668 403.04 121.786 403.653 122.055 404.204C122.323 404.755 122.731 405.226 123.239 405.57C123.825 405.887 126.905 407.696 127.858 408.197C128.187 408.366 128.556 408.443 128.925 408.422C129.295 408.4 129.652 408.28 129.96 408.075L409.578 246.551C410.641 245.87 411.527 244.946 412.164 243.857C412.801 242.767 413.171 241.542 413.244 240.282V50.8718C413.305 50.3999 413.232 49.9203 413.033 49.488C412.835 49.0556 412.518 48.6882 412.12 48.4278C411.435 48.1956 408.258 46.4359 407.598 45.996Z" fill="#CFA0EE"/>
<path d="M130.009 210.294L409.578 48.88C411.582 47.7313 413.244 48.6722 413.244 50.9818V240.392C413.171 241.652 412.801 242.877 412.164 243.967C411.527 245.056 410.64 245.98 409.578 246.661L130.009 408.075C128.004 409.223 126.343 407.354 126.343 405.044V216.563C126.415 215.303 126.785 214.078 127.422 212.988C128.06 211.898 128.946 210.975 130.009 210.294Z" fill="#FAFAFA"/>
<path d="M411.203 49.5521C411.875 49.5521 411.985 50.4075 411.985 50.9208V240.331C411.919 241.373 411.612 242.386 411.089 243.289C410.565 244.192 409.838 244.962 408.967 245.536L129.398 407.012C129.224 407.131 129.021 407.199 128.811 407.207C128.176 407.207 127.589 406.193 127.589 405.044V216.563C127.655 215.519 127.962 214.505 128.485 213.599C129.009 212.694 129.735 211.922 130.607 211.345L410.189 49.8821C410.494 49.6887 410.843 49.5752 411.203 49.5521ZM411.203 48.3301C410.628 48.3519 410.069 48.5201 409.578 48.8189L130.009 210.294C128.946 210.975 128.06 211.898 127.422 212.988C126.785 214.078 126.415 215.303 126.343 216.563V405.044C126.343 406.877 127.357 408.429 128.787 408.429C129.219 408.425 129.641 408.303 130.009 408.075L409.578 246.551C410.64 245.87 411.527 244.946 412.164 243.857C412.801 242.767 413.171 241.542 413.244 240.282V50.8719C413.244 49.2222 412.425 48.2812 411.24 48.2812L411.203 48.3301Z" fill="#E0E0E0"/>
<path d="M123.275 405.57C123.666 405.777 126.489 407.39 127.723 408.087C127.278 407.72 126.925 407.254 126.693 406.725C126.462 406.196 126.358 405.62 126.391 405.044V228.404L121.748 225.691V402.429C121.71 403.04 121.83 403.65 122.098 404.201C122.366 404.751 122.771 405.223 123.275 405.57Z" fill="#F0F0F0"/>
<path d="M413.207 50.884C413.207 48.5989 411.57 47.6702 409.541 48.8189L130.009 210.294C128.946 210.975 128.06 211.898 127.422 212.988C126.785 214.078 126.415 215.303 126.343 216.563V228.404L413.207 62.7741V50.884Z" fill="#CFA0EE"/>
<g opacity="0.4">
<path d="M409.578 48.88L130.009 210.294C128.941 210.956 128.062 211.882 127.455 212.982L122.86 210.318C123.458 209.233 124.325 208.32 125.377 207.667L404.959 46.2038C405.336 45.9329 405.779 45.7694 406.242 45.7306C406.704 45.6919 407.169 45.7794 407.586 45.9838C408.234 46.3871 411.252 48.0979 412.01 48.5012C411.604 48.3641 411.171 48.327 410.747 48.3929C410.324 48.4589 409.923 48.6259 409.578 48.88Z" fill="white"/>
</g>
<path opacity="0.15" d="M121.748 225.703V213.936C121.793 212.638 122.177 211.374 122.86 210.27L127.467 212.921C126.803 214.005 126.432 215.243 126.391 216.514V228.355L121.748 225.703Z" fill="black"/>
<path d="M126.391 228.404L126.379 249.74L413.195 84.1347V62.7742L126.391 228.404Z" fill="#EBEBEB"/>
<path d="M138.33 226.828L156.88 216.172V226.791L138.318 237.508L138.33 226.828Z" fill="#E0E0E0"/>
<path d="M161.463 213.471V217.675L170.713 212.323V208.131L161.463 213.471Z" fill="#E0E0E0"/>
<path d="M161.463 219.96V224.164L170.713 218.811V214.62L161.463 219.96Z" fill="#E0E0E0"/>
<path d="M175.345 205.455V209.659L184.595 204.318V200.115L175.345 205.455Z" fill="#E0E0E0"/>
<path d="M175.345 211.944V216.147L184.595 210.807V206.604L175.345 211.944Z" fill="#E0E0E0"/>
<path d="M189.214 197.439V201.642L198.465 196.302V192.098L189.214 197.439Z" fill="#E0E0E0"/>
<path d="M189.214 203.927V208.131L198.465 202.791V198.587L189.214 203.927Z" fill="#E0E0E0"/>
<path d="M230.848 173.402V177.605L240.099 172.265V168.062L230.848 173.402Z" fill="#E0E0E0"/>
<path d="M230.848 179.903V184.094L240.099 178.754V174.55L230.848 179.903Z" fill="#E0E0E0"/>
<path d="M244.73 165.398V169.589L253.98 164.249V160.045L244.73 165.398Z" fill="#E0E0E0"/>
<path d="M244.73 171.887V176.078L253.98 170.738V166.534L244.73 171.887Z" fill="#E0E0E0"/>
<path d="M258.6 157.381L258.612 161.585L267.862 156.245V152.041L258.6 157.381Z" fill="#E0E0E0"/>
<path d="M258.6 163.87L258.612 168.074L267.862 162.721V158.53L258.6 163.87Z" fill="#E0E0E0"/>
<path d="M203.096 189.434L226.229 176.078V186.758L203.096 200.115V189.434Z" fill="#E0E0E0"/>
<path d="M272.494 149.365L291.044 138.709V149.341L272.482 160.058L272.494 149.365Z" fill="#E0E0E0"/>
<path d="M295.614 136.009L295.626 140.212L304.877 134.872V130.668L295.614 136.009Z" fill="#E0E0E0"/>
<path d="M295.614 142.497L295.626 146.701L304.877 141.361V137.157L295.614 142.497Z" fill="#E0E0E0"/>
<path d="M309.496 128.004V132.208L318.746 126.856V122.652L309.496 128.004Z" fill="#E0E0E0"/>
<path d="M309.496 134.493V138.697L318.746 133.345V129.141L309.496 134.493Z" fill="#E0E0E0"/>
<path d="M323.378 119.988V124.192L332.628 118.839V114.636L323.378 119.988Z" fill="#E0E0E0"/>
<path d="M323.378 126.477V130.681L332.628 125.328V121.137L323.378 126.477Z" fill="#E0E0E0"/>
<path d="M365.011 95.9515V100.155L374.262 94.8028V90.5991L365.011 95.9515Z" fill="#E0E0E0"/>
<path d="M365.011 102.44V106.644L374.262 101.292V97.1001L365.011 102.44Z" fill="#E0E0E0"/>
<path d="M378.893 87.9351V92.1388L388.144 86.7987V82.595L378.893 87.9351Z" fill="#E0E0E0"/>
<path d="M378.893 94.4239V98.6276L388.144 93.2874V89.0837L378.893 94.4239Z" fill="#E0E0E0"/>
<path d="M392.763 79.9188V84.1224L402.026 78.7823V74.5786L392.763 79.9188Z" fill="#E0E0E0"/>
<path d="M392.763 86.4076V90.6113L402.026 85.2712V81.0675L392.763 86.4076Z" fill="#E0E0E0"/>
<path d="M337.26 111.972L360.392 98.6154V109.308L337.26 122.652V111.972Z" fill="#E0E0E0"/>
<path d="M126.391 228.404L121.748 225.691V247.064L126.379 249.74L126.391 228.404Z" fill="#E0E0E0"/>
<path d="M339.191 97.1001V97.8944C339.191 99.1164 340.07 99.654 341.158 99.0308L397.37 66.5867C397.943 66.2104 398.42 65.7047 398.761 65.1104C399.103 64.5161 399.301 63.8497 399.337 63.1651V62.383C399.337 61.161 398.458 60.6111 397.37 61.2466L341.158 93.6907C340.584 94.0636 340.107 94.5668 339.765 95.1594C339.423 95.7519 339.226 96.4169 339.191 97.1001Z" fill="#F5F5F5"/>
<path d="M399.325 63.1651V62.383C399.325 61.161 398.445 60.6111 397.358 61.2466L390.026 65.4503V70.7904L397.358 66.5867C397.931 66.2104 398.408 65.7047 398.749 65.1104C399.091 64.5161 399.288 63.8497 399.325 63.1651Z" fill="#455A64"/>
<path d="M131.011 252.392L408.588 92.1632V102.819L154.131 249.74V388.62L131.011 401.965V252.392Z" fill="#F0F0F0"/>
<path d="M154.131 249.74L177.251 236.396V247.052L154.131 260.42V249.74Z" fill="#CFA0EE"/>
<path d="M154.131 335.195L177.251 321.85V332.506L154.131 345.875V335.195Z" fill="#CFA0EE"/>
<path d="M154.131 345.875L177.251 332.531V343.186L154.131 356.555V345.875Z" fill="#CFA0EE"/>
<path opacity="0.8" d="M154.131 345.875L177.251 332.531V343.186L154.131 356.555V345.875Z" fill="white"/>
<path d="M292.901 255.068L316.021 241.724V252.38L292.901 265.748V255.068Z" fill="#CFA0EE"/>
<path opacity="0.3" d="M292.901 255.068L316.021 241.724V252.38L292.901 265.748V255.068Z" fill="black"/>
<path d="M292.901 265.748L316.021 252.404V263.06L292.901 276.429V265.748Z" fill="#CFA0EE"/>
<path opacity="0.4" d="M292.901 265.748L316.021 252.404V263.06L292.901 276.429V265.748Z" fill="black"/>
<path d="M292.901 276.441L316.021 263.097V273.752L292.901 287.121V276.441Z" fill="#CFA0EE"/>
<path opacity="0.5" d="M292.901 276.441L316.021 263.097V273.752L292.901 287.121V276.441Z" fill="black"/>
<path d="M292.901 287.121L316.021 273.777V284.433L292.901 297.801V287.121Z" fill="#CFA0EE"/>
<path opacity="0.3" d="M292.901 287.121L316.021 273.777V284.433L292.901 297.801V287.121Z" fill="black"/>
<path d="M269.793 182.958L292.901 169.614V223.027L269.793 236.396V182.958Z" fill="#CFA0EE"/>
<path d="M269.793 247.064L292.901 233.72V308.494L269.793 321.862V247.064Z" fill="#CFA0EE"/>
<path d="M177.251 300.478L200.359 287.133V297.789L177.251 311.158V300.478Z" fill="#CFA0EE"/>
<path opacity="0.3" d="M177.251 300.478L200.359 287.133V297.789L177.251 311.158V300.478Z" fill="black"/>
<path d="M223.528 220.351L246.648 207.007V217.663L223.528 231.031V220.351Z" fill="#CFA0EE"/>
<path opacity="0.6" d="M223.528 220.351L246.648 207.007V217.663L223.528 231.031V220.351Z" fill="white"/>
<path d="M339.191 217.675L362.299 204.331V214.986L339.191 228.355V217.675Z" fill="#CFA0EE"/>
<path opacity="0.8" d="M339.191 217.675L362.299 204.331V214.986L339.191 228.355V217.675Z" fill="white"/>
<path d="M339.191 239.048L362.299 225.703V236.359L339.191 249.728V239.048Z" fill="#CFA0EE"/>
<path d="M130.754 251.915L130.473 252.074V402.967L408.857 242.213L409.15 242.054V91.1611L130.754 251.915ZM408.038 230.738L386.042 243.435V234.062L408.038 221.377V230.738ZM131.585 263.414L153.581 250.718V260.09L131.585 272.787V263.414ZM269.231 248.066V257.439L247.235 270.135V260.763L269.231 248.066ZM247.235 259.443V250.07L269.231 237.373V246.746L247.235 259.443ZM270.368 247.406L292.364 234.709V244.082L270.368 256.779V247.406ZM270.368 246.086V236.726L292.364 224.017V233.402L270.368 246.086ZM270.368 235.406V226.07L292.364 213.373V222.746L270.368 235.406ZM270.368 224.714V215.353L292.364 202.644V212.017L270.368 224.714ZM269.231 225.373L247.235 238.07V228.697L269.231 216.001V225.373ZM269.231 226.693V236.066L247.235 248.762V239.39L269.231 226.693ZM246.099 249.422L224.103 262.119V252.746L246.099 240.05V249.422ZM246.099 250.73V260.103L224.103 272.799V263.426L246.099 250.73ZM246.099 261.422V270.795L224.103 283.492V274.119L246.099 261.422ZM246.099 272.103V281.475L224.103 294.172V284.799L246.099 272.103ZM247.235 271.443L269.231 258.746V268.119L247.235 280.816V271.443ZM269.231 269.439V278.811L247.235 291.508V282.135L269.231 269.439ZM270.368 268.779L292.364 256.082V265.455L270.368 278.152V268.779ZM270.368 267.459V258.086L292.364 245.39V254.762L270.368 267.459ZM293.5 244.742L315.496 232.046V241.418L293.5 254.115V244.742ZM293.5 243.422V234.05L315.496 221.353V230.726L293.5 243.422ZM293.5 232.742V223.369L315.496 210.673V220.045L293.5 232.742ZM293.5 222.05V212.628L315.496 199.931V209.304L293.5 222.05ZM293.5 211.369V201.997L315.496 189.3V198.66L293.5 211.369ZM293.5 200.677V191.304L315.496 178.607V187.98L293.5 200.677ZM292.364 201.337L270.368 214.033V204.66L292.364 191.964V201.337ZM269.231 214.693L247.235 227.39V218.017L269.231 205.32V214.693ZM246.099 228.05L224.103 240.746V231.373L246.099 218.677V228.05ZM246.099 229.357V238.73L224.103 251.426V242.054L246.099 229.357ZM222.966 252.086L200.97 264.783V255.398L222.966 242.701V252.086ZM222.966 253.406V262.73L200.97 275.439V266.066L222.966 253.406ZM222.966 264.086V273.459L200.97 286.156V276.783L222.966 264.086ZM222.966 274.779V284.139L200.97 296.848V287.475L222.966 274.779ZM222.966 285.459V294.832L200.97 307.528V298.168L222.966 285.459ZM222.966 296.152V305.5L200.97 318.209V308.836L222.966 296.152ZM224.103 295.492L246.099 282.795V292.168L224.103 304.865V295.492ZM246.099 293.475V302.848L224.103 315.545V306.172L246.099 293.475ZM247.235 292.816L269.231 280.119V289.492L247.235 302.188V292.816ZM270.368 279.459L292.364 266.763V276.172L270.368 288.869V279.459ZM293.5 266.115L315.496 253.418V262.791L293.5 275.488V266.115ZM293.5 264.795V255.398L315.496 242.701V252.074L293.5 264.795ZM316.632 242.066L338.628 229.369V238.742L316.632 251.439V242.066ZM316.632 240.758V231.386L338.628 218.689V228.062L316.632 240.758ZM316.632 230.066V220.693L338.628 207.997V217.369L316.632 230.066ZM316.632 219.386V210.013L338.628 197.316V206.689L316.632 219.386ZM316.632 208.693V199.32L338.628 186.624V195.997L316.632 208.693ZM316.632 198.013V188.64L338.628 175.943V185.316L316.632 198.013ZM316.632 187.32V177.948L338.628 165.251V174.624L316.632 187.32ZM316.632 176.64V167.267L338.628 154.571V163.943L316.632 176.64ZM315.496 177.288L293.5 189.996V180.624L315.496 167.927V177.288ZM292.364 190.632L270.368 203.329V193.968L292.364 181.259V190.632ZM269.231 203.988L247.235 216.685V207.312L269.231 194.616V203.988ZM246.099 217.345L224.103 230.041V220.669L246.099 207.972V217.345ZM222.966 230.714L200.97 243.41V234.037L222.966 221.341V230.714ZM222.966 232.033V241.394L200.97 254.103V244.73L222.966 232.033ZM199.834 254.75L177.838 267.447V258.086L199.834 245.378V254.75ZM199.834 256.07V265.443L177.838 278.139V268.767L199.834 256.07ZM199.834 266.75V276.172L177.838 288.869V279.496L199.834 266.75ZM199.834 277.443V286.816L177.838 299.512V290.139L199.834 277.443ZM199.834 288.123V297.496L177.838 310.192V300.832L199.834 288.123ZM199.834 298.816V308.188L177.838 320.885V311.512L199.834 298.816ZM199.834 309.496V318.869L177.838 331.565V322.205L199.834 309.496ZM199.834 320.188V329.561L177.838 342.258V332.885L199.834 320.188ZM200.97 319.529L222.966 306.832V316.205L200.97 328.901V319.529ZM222.966 317.524V326.897L200.97 339.594V330.221L222.966 317.524ZM224.103 316.865L246.099 304.168V313.541L224.103 326.237V316.865ZM247.235 303.508L269.231 290.811V300.184L247.235 312.881V303.508ZM270.368 290.152L292.364 277.455V286.828L270.368 299.524V290.152ZM293.5 276.795L315.496 264.099V273.471L293.5 286.168V276.795ZM316.632 263.439L338.628 250.742V260.115L316.632 272.811V263.439ZM316.632 262.131V252.758L338.628 240.062V249.435L316.632 262.131ZM339.716 239.402L361.712 226.705V236.078L339.716 248.775V239.402ZM339.716 238.082V228.709L361.712 216.013V225.386L339.716 238.082ZM339.716 227.402V218.029L361.712 205.296V214.669L339.716 227.402ZM339.716 216.709V207.337L361.712 194.64V204.074L339.716 216.709ZM339.716 206.029V196.656L361.712 183.96V193.333L339.716 206.029ZM339.716 195.337V185.964L361.712 173.267V182.64L339.716 195.337ZM339.716 184.656V175.284L361.712 162.587V171.96L339.716 184.656ZM339.716 173.964V164.591L361.712 151.895V161.304L339.716 173.964ZM339.716 163.284V153.972L361.712 141.275V150.648L339.716 163.284ZM339.716 152.591V143.218L361.712 130.522V139.895L339.716 152.591ZM338.58 153.251L316.584 165.948V156.575L338.58 143.878V153.251ZM315.447 166.607L293.451 179.304V169.931L315.447 157.235V166.607ZM292.315 179.964L270.319 192.66V183.3L292.315 170.603V179.964ZM269.231 193.32L247.235 206.017V196.644L269.231 183.948V193.32ZM246.099 206.677L224.103 219.373V210.001L246.099 197.304V206.677ZM222.966 220.021L200.97 232.73V223.357L222.966 210.661V220.021ZM199.834 233.402L177.838 246.099V236.738L199.834 224.029V233.402ZM199.834 234.722V244.094L177.838 256.791V247.418L199.834 234.722ZM176.701 257.451L154.705 270.147V260.775L176.701 248.078V257.451ZM176.701 258.758V268.131L154.705 280.828V271.455L176.701 258.758ZM176.701 269.451V278.824L154.705 291.52V282.148L176.701 269.451ZM176.701 280.131V289.504L154.705 302.201V292.828L176.701 280.131ZM176.701 290.824V300.196L154.705 312.832V303.459L176.701 290.824ZM176.701 301.504V310.877L154.705 323.573V314.176L176.701 301.504ZM176.701 312.197V321.569L154.705 334.266V324.893L176.701 312.197ZM176.701 322.877V332.25L154.705 344.946V335.573L176.701 322.877ZM176.701 333.569V342.942L154.705 355.602V346.229L176.701 333.569ZM176.701 344.25V353.622L154.705 366.319V356.946L176.701 344.25ZM177.838 343.602L199.834 330.893V340.266L177.838 352.962V343.602ZM199.834 341.586V350.958L177.838 363.655V354.258L199.834 341.586ZM200.97 340.926L222.966 328.229V337.602L200.97 350.298V340.926ZM224.103 327.496L246.099 314.799V324.172L224.103 336.869V327.496ZM247.235 314.139L269.231 301.443V310.816L247.235 323.512V314.139ZM270.368 300.795L292.364 288.086V297.459L270.368 310.156V300.795ZM293.5 287.439L315.496 274.742V284.115L293.5 296.812V287.439ZM316.632 274.082L338.628 261.386V270.758L316.632 283.455V274.082ZM339.716 260.775L361.712 248.066V257.439L339.716 270.135V260.775ZM339.716 259.455V250.082L361.712 237.386V246.758L339.716 259.455ZM362.934 236.738L384.93 224.029V233.402L362.934 246.099V236.738ZM362.934 235.418V226.07L384.93 213.373V222.746L362.934 235.418ZM362.934 224.726V215.365L384.93 202.656V212.029L362.934 224.726ZM362.934 214.045V204.673L384.93 191.976V201.349L362.934 214.045ZM362.934 203.353V193.992L384.93 181.284V190.632L362.934 203.353ZM362.934 192.673V183.3L384.93 170.603V179.976L362.934 192.673ZM362.934 181.98V172.62L384.93 159.911V169.284L362.934 181.98ZM362.934 171.3V161.927L384.93 149.231V158.603L362.934 171.3ZM362.934 160.607V151.247L384.93 138.538V147.862L362.934 160.607ZM362.934 149.927V140.53L384.93 127.833V137.206L362.934 149.927ZM362.934 139.235V129.874L384.93 117.165V126.538L362.934 139.235ZM362.934 128.554V119.182L384.93 106.485V115.858L362.934 128.554ZM361.785 129.214L339.789 141.911V132.538L361.785 119.841V129.214ZM338.665 142.571L316.669 155.267V145.895L338.665 133.198V142.571ZM315.533 155.915L293.537 168.624V159.251L315.533 146.554V155.915ZM292.4 169.271L270.404 181.968V172.607L292.4 159.911V169.271ZM269.268 182.628L247.272 195.324V185.964L269.268 173.267V182.628ZM246.135 195.984L224.139 208.681V199.32L246.135 186.624V195.984ZM223.003 209.341L201.007 222.037V212.628L223.003 199.931V209.341ZM199.87 222.697L177.874 235.394V226.07L199.87 213.361V222.697ZM176.701 236.054L154.705 248.75V239.378L176.701 226.681V236.054ZM176.701 237.361V246.734L154.705 259.431V250.058L176.701 237.361ZM131.585 274.107L153.581 261.41V270.783L131.585 283.479V274.107ZM131.585 284.787L153.581 272.09V281.463L131.585 294.16V284.787ZM131.585 295.48L153.581 282.783V292.156L131.585 304.852V295.48ZM131.585 306.16L153.581 293.463V302.836L131.585 315.533V306.16ZM131.585 316.852L153.581 304.156V313.528L131.585 326.225V316.852ZM131.585 327.533L153.581 314.836V324.209L131.585 336.905V327.533ZM131.585 338.225L153.581 325.529V334.901L131.585 347.598V338.225ZM131.585 348.905L153.581 336.209V345.582L131.585 358.278V348.905ZM131.585 359.598L153.581 346.901V356.274L131.585 368.971V359.598ZM131.585 370.278L153.581 357.582V366.954L131.585 379.651V370.278ZM131.585 380.971L153.581 368.274V377.598L131.585 390.295V380.971ZM154.705 367.614L176.701 354.918V364.29L154.705 376.987V367.614ZM176.701 365.598V374.934L154.705 387.643V378.294L176.701 365.598ZM177.838 364.938L199.834 352.241V361.59L177.838 374.286V364.938ZM200.97 351.594L222.966 338.897V348.27L200.97 360.967V351.594ZM224.103 338.237L246.099 325.541V334.828L224.103 347.525V338.237ZM247.235 324.881L269.231 312.184V321.52L247.235 334.217V324.881ZM270.368 311.524L292.364 298.828V308.164L270.368 320.86V311.524ZM293.5 298.168L315.496 285.471V294.807L293.5 307.504V298.168ZM316.632 284.811L338.628 272.115V281.451L316.632 294.148V284.811ZM339.716 271.455L361.712 258.758V268.095L339.716 280.791V271.455ZM362.934 258.111L384.93 245.402V254.738L362.934 267.435V258.111ZM362.934 256.791V247.418L384.93 234.722V244.094L362.934 256.791ZM408.05 220.058L386.054 232.754V223.382L408.05 210.685V220.058ZM408.05 209.365L386.054 222.062V212.689L408.05 200.005V209.365ZM408.05 198.685L386.03 211.406V202.033L408.026 189.337L408.05 198.685ZM408.05 187.992L386.054 200.689V191.316L408.05 178.62V187.992ZM408.05 177.312L386.054 190.009V180.636L408.05 167.939V177.312ZM408.05 166.62L386.054 179.316V169.943L408.05 157.247V166.62ZM408.05 155.939L386.03 168.636V159.263L408.026 146.567L408.05 155.939ZM408.05 145.247L386.054 157.943V148.571L408.05 135.874V145.247ZM408.05 134.567L386.054 147.263V137.89L408.05 125.194V134.567ZM408.05 123.874L386.054 136.571V127.198L408.05 114.501V123.874ZM408.05 113.194L386.03 125.866V116.518L408.026 103.821L408.05 113.194ZM408.05 102.501L386.054 115.198V105.837L408.05 93.1408V102.501ZM153.569 240.037V249.41L131.573 262.094V252.734L153.569 240.037ZM131.573 391.651L153.569 378.954V388.29L131.573 400.987V391.651ZM386.03 254.09V244.754L408.026 232.058V241.394L386.03 254.09Z" fill="#E0E0E0"/>
<path d="M316.021 156.233L408.588 102.831V156.269L316.021 209.646V156.233Z" fill="#FAFAFA"/>
<path d="M315.398 210.709V155.878L315.704 155.707L409.187 101.78V156.624L315.398 210.709ZM316.62 156.587V208.595L407.965 155.915V103.87L316.62 156.587Z" fill="#E0E0E0"/>
<path d="M320.689 196.742H320.543C320.428 196.698 320.334 196.611 320.282 196.499C320.229 196.388 320.222 196.26 320.262 196.143L332.775 161.927C332.8 161.866 332.837 161.81 332.885 161.764C332.933 161.718 332.99 161.683 333.052 161.661C333.115 161.639 333.181 161.631 333.247 161.637C333.313 161.643 333.377 161.662 333.435 161.695L346.962 169.858L360.612 155.952C360.695 155.884 360.799 155.847 360.905 155.847C361.012 155.847 361.116 155.884 361.199 155.952L374.641 164.787L388.29 131.157C388.315 131.099 388.352 131.046 388.398 131.003C388.444 130.959 388.499 130.926 388.558 130.904C388.618 130.882 388.681 130.873 388.744 130.876C388.807 130.88 388.869 130.897 388.926 130.925L402.796 138.037C402.849 138.064 402.896 138.102 402.934 138.147C402.973 138.193 403.002 138.245 403.02 138.302C403.038 138.359 403.045 138.419 403.04 138.478C403.035 138.537 403.018 138.595 402.991 138.648C402.964 138.701 402.926 138.748 402.881 138.787C402.835 138.825 402.783 138.854 402.726 138.872C402.669 138.891 402.61 138.897 402.55 138.892C402.491 138.887 402.433 138.871 402.38 138.844L388.938 131.964L375.252 165.654C375.226 165.717 375.186 165.772 375.135 165.817C375.084 165.861 375.024 165.894 374.958 165.911C374.9 165.941 374.835 165.957 374.769 165.957C374.703 165.957 374.638 165.941 374.58 165.911L361.015 156.978L347.378 170.872C347.305 170.945 347.211 170.991 347.109 171.005C347.008 171.018 346.904 170.997 346.816 170.946L333.459 162.954L321.142 196.595C321.086 196.657 321.014 196.703 320.935 196.729C320.856 196.755 320.771 196.759 320.689 196.742Z" fill="#455A64"/>
<path d="M333.203 160.546C332.793 160.814 332.453 161.175 332.211 161.6C331.969 162.025 331.831 162.502 331.81 162.99C331.81 163.882 332.433 164.212 333.203 163.797C333.612 163.529 333.951 163.167 334.193 162.742C334.436 162.318 334.573 161.841 334.596 161.353C334.596 160.461 333.973 160.082 333.203 160.546Z" fill="#CFA0EE"/>
<path d="M347.048 168.807C346.64 169.077 346.302 169.438 346.06 169.863C345.818 170.287 345.679 170.763 345.655 171.251C345.655 172.143 346.278 172.473 347.048 172.058C347.456 171.788 347.794 171.426 348.036 171.002C348.278 170.577 348.417 170.102 348.441 169.614C348.466 168.734 347.842 168.367 347.048 168.807Z" fill="#CFA0EE"/>
<path d="M360.942 154.644C360.535 154.914 360.196 155.275 359.954 155.7C359.712 156.124 359.573 156.6 359.549 157.088C359.549 157.98 360.172 158.31 360.942 157.895C361.351 157.626 361.691 157.265 361.933 156.84C362.175 156.415 362.313 155.939 362.335 155.451C362.335 154.571 361.712 154.204 360.942 154.644Z" fill="#CFA0EE"/>
<path d="M374.812 163.748C374.402 164.015 374.062 164.377 373.82 164.802C373.578 165.227 373.44 165.703 373.419 166.192C373.419 167.084 374.042 167.414 374.812 166.998C375.222 166.731 375.562 166.37 375.804 165.945C376.046 165.52 376.184 165.043 376.205 164.554C376.205 163.748 375.582 163.345 374.812 163.748Z" fill="#CFA0EE"/>
<path d="M388.682 129.642C388.272 129.909 387.932 130.271 387.69 130.696C387.447 131.121 387.31 131.597 387.288 132.086C387.288 132.978 387.912 133.308 388.682 132.892C389.091 132.624 389.43 132.263 389.672 131.838C389.914 131.413 390.052 130.937 390.075 130.448C390.075 129.532 389.451 129.19 388.682 129.642Z" fill="#CFA0EE"/>
<path d="M402.551 136.754C402.142 137.021 401.802 137.383 401.559 137.808C401.317 138.233 401.18 138.709 401.158 139.198C401.158 140.09 401.781 140.42 402.551 140.005C402.961 139.737 403.301 139.376 403.543 138.951C403.785 138.526 403.923 138.049 403.944 137.561C403.944 136.668 403.321 136.302 402.551 136.754Z" fill="#CFA0EE"/>
<path d="M447.093 299.622L422.482 313.834L447.093 328.046L471.704 313.834L447.093 299.622Z" fill="#455A64"/>
<path d="M471.704 313.81V370.327L447.093 384.539V328.058L471.704 313.81Z" fill="#37474F"/>
<path d="M447.093 328.058V384.539L422.482 370.327V313.81L447.093 328.058Z" fill="#263238"/>
<path d="M414.71 342.832L390.099 357.044L414.71 371.256L439.321 357.044L414.71 342.832Z" fill="#CFA0EE"/>
<path opacity="0.3" d="M414.71 342.832L390.099 357.044L414.71 371.256L439.321 357.044L414.71 342.832Z" fill="white"/>
<path d="M439.321 357.007V389.024L414.71 403.236V371.256L439.321 357.007Z" fill="#CFA0EE"/>
<path d="M414.71 371.256V403.236L390.099 389.024V357.02L414.71 371.256Z" fill="#CFA0EE"/>
<path opacity="0.1" d="M414.71 371.256V403.236L390.099 389.024V357.02L414.71 371.256Z" fill="black"/>
<path d="M382.327 348.233L357.716 362.445L382.327 376.657L406.938 362.445L382.327 348.233Z" fill="#CFA0EE"/>
<path opacity="0.88" d="M382.327 348.233L357.716 362.445L382.327 376.657L406.938 362.445L382.327 348.233Z" fill="white"/>
<path d="M406.938 362.421V407.72L382.327 421.932V376.657L406.938 362.421Z" fill="#CFA0EE"/>
<path opacity="0.75" d="M406.938 362.421V407.72L382.327 421.932V376.657L406.938 362.421Z" fill="white"/>
<path d="M382.327 376.657V421.932L357.716 407.72V362.421L382.327 376.657Z" fill="#CFA0EE"/>
<path opacity="0.6" d="M382.327 376.657V421.932L357.716 407.72V362.421L382.327 376.657Z" fill="white"/>
<path d="M349.944 396.234L325.333 410.445L349.944 424.657L374.555 410.445L349.944 396.234Z" fill="#CFA0EE"/>
<path opacity="0.3" d="M349.944 396.234L325.333 410.445L349.944 424.657L374.555 410.445L349.944 396.234Z" fill="black"/>
<path d="M374.555 410.409V426.417L349.944 440.629V424.657L374.555 410.409Z" fill="#CFA0EE"/>
<path opacity="0.4" d="M374.555 410.409V426.417L349.944 440.629V424.657L374.555 410.409Z" fill="black"/>
<path d="M349.944 424.657V440.629L325.333 426.417V410.409L349.944 424.657Z" fill="#CFA0EE"/>
<path opacity="0.55" d="M349.944 424.657V440.629L325.333 426.417V410.409L349.944 424.657Z" fill="black"/>
<path d="M215.866 495.643V504.967L206.665 479.953V470.653L215.866 495.643Z" fill="#263238"/>
<path d="M215.879 495.655V504.967L253.834 491.794V482.482L215.879 495.655Z" fill="#37474F"/>
<path d="M206.665 470.641L215.879 495.655L253.834 482.482C243.41 473.391 225.288 468.845 206.665 470.641Z" fill="#455A64"/>
<path d="M167.011 497.354C167.005 497.448 167.005 497.541 167.011 497.635V497.354Z" fill="#CFA0EE"/>
<path d="M212.09 507.399L206.518 533.916C183.508 531.668 166.876 520.034 167.072 506.727V497.66C167.072 510.857 183.654 522.381 206.53 524.605L210.392 506.385L212.09 507.399Z" fill="#CFA0EE"/>
<path opacity="0.4" d="M212.09 507.399L206.518 533.916C183.508 531.668 166.876 520.034 167.072 506.727V497.66C167.072 510.857 183.654 522.381 206.53 524.605L210.392 506.385L212.09 507.399Z" fill="black"/>
<path d="M210.771 524.91V534.222C220.269 534.757 229.782 533.441 238.779 530.348C249.63 526.584 257.292 520.572 260.359 513.521C261.259 511.47 261.741 509.26 261.777 507.02C261.777 506.128 261.777 497.391 261.777 497.391C261.777 497.391 259.15 497.183 256.07 493.908L248.958 496.352L216.416 507.643L210.771 524.91Z" fill="#CFA0EE"/>
<path opacity="0.6" d="M210.771 524.91V534.222C220.269 534.757 229.782 533.441 238.779 530.348C249.63 526.584 257.292 520.572 260.359 513.521C261.259 511.47 261.741 509.26 261.777 507.02C261.777 506.128 261.777 497.391 261.777 497.391C261.777 497.391 259.15 497.183 256.07 493.908L248.958 496.352L216.416 507.643L210.771 524.91Z" fill="white"/>
<path d="M182.445 486.735L210.722 503.061V493.749L182.445 477.423V486.735Z" fill="#CFA0EE"/>
<path opacity="0.1" d="M182.445 486.735L210.722 503.061V493.749L182.445 477.423V486.735Z" fill="black"/>
<path d="M167.414 494.299C164.322 508.853 181.724 522.185 206.518 524.605L212.151 498.087L179.426 479.195C172.534 483.484 168.636 488.433 167.414 494.299Z" fill="#CFA0EE"/>
<path opacity="0.3" d="M167.414 494.299C164.322 508.853 181.724 522.185 206.518 524.605L212.151 498.087L179.426 479.195C172.534 483.484 168.636 488.433 167.414 494.299Z" fill="black"/>
<path d="M210.929 524.14L210.771 524.91C220.266 525.461 229.778 524.162 238.779 521.085C249.63 517.322 257.292 511.309 260.359 504.258C263.243 497.574 261.716 490.657 256.07 484.706L248.958 487.15L216.416 498.442L210.929 524.14Z" fill="#CFA0EE"/>
<path opacity="0.75" d="M210.929 524.14L210.771 524.91C220.266 525.461 229.778 524.162 238.779 521.085C249.63 517.322 257.292 511.309 260.359 504.258C263.243 497.574 261.716 490.657 256.07 484.706L248.958 487.15L216.416 498.442L210.929 524.14Z" fill="white"/>
<path d="M182.445 477.423L210.722 493.749L202.412 471.167C195.432 472.022 188.665 474.142 182.445 477.423Z" fill="#CFA0EE"/>
<path d="M212.09 507.399V498.087L206.445 524.605V533.916L212.09 507.399Z" fill="#CFA0EE"/>
<path opacity="0.55" d="M212.09 507.399V498.087L206.445 524.605V533.916L212.09 507.399Z" fill="black"/>
<path d="M248.164 456.674L242.005 460.23L248.164 463.786L254.323 460.23L248.164 456.674Z" fill="#CFA0EE"/>
<path opacity="0.3" d="M248.164 456.674L242.005 460.23L248.164 463.786L254.323 460.23L248.164 456.674Z" fill="black"/>
<path d="M254.323 460.23V463.798L248.164 467.354V463.786L254.323 460.23Z" fill="#CFA0EE"/>
<path opacity="0.4" d="M254.323 460.23V463.798L248.164 467.354V463.786L254.323 460.23Z" fill="black"/>
<path d="M248.164 463.786V467.354L242.005 463.798V460.23L248.164 463.786Z" fill="#CFA0EE"/>
<path opacity="0.55" d="M248.164 463.786V467.354L242.005 463.798V460.23L248.164 463.786Z" fill="black"/>
<path d="M257.573 453.912L280.4 440.739C281.134 440.35 281.949 440.139 282.779 440.124C283.609 440.11 284.431 440.291 285.178 440.653C286.4 441.386 286.4 442.621 285.019 443.415L262.192 456.588C261.458 456.974 260.643 457.183 259.813 457.198C258.984 457.213 258.162 457.033 257.414 456.674C256.143 455.94 256.205 454.706 257.573 453.912Z" fill="#E0E0E0"/>
<path d="M262.046 464.69L255.887 468.246L262.046 471.802L268.205 468.246L262.046 464.69Z" fill="#CFA0EE"/>
<path opacity="0.88" d="M262.046 464.69L255.887 468.246L262.046 471.802L268.205 468.246L262.046 464.69Z" fill="white"/>
<path d="M268.205 468.234V471.802L262.046 475.358V471.802L268.205 468.234Z" fill="#CFA0EE"/>
<path opacity="0.75" d="M268.205 468.234V471.802L262.046 475.358V471.802L268.205 468.234Z" fill="white"/>
<path d="M262.046 471.802V475.358L255.887 471.802V468.234L262.046 471.802Z" fill="#CFA0EE"/>
<path opacity="0.6" d="M262.046 471.802V475.358L255.887 471.802V468.234L262.046 471.802Z" fill="white"/>
<path d="M271.455 461.916L294.27 448.743C295.002 448.352 295.817 448.139 296.647 448.122C297.477 448.105 298.3 448.284 299.048 448.645C300.331 449.391 300.27 450.625 298.901 451.407L276.074 464.604C275.34 464.991 274.525 465.2 273.695 465.214C272.866 465.229 272.044 465.05 271.296 464.69C270.062 463.944 270.062 462.71 271.455 461.916Z" fill="#E0E0E0"/>
<path d="M275.915 472.706L269.757 476.262L275.928 479.818L282.086 476.262L275.915 472.706Z" fill="#CFA0EE"/>
<path opacity="0.3" d="M275.915 472.706L269.757 476.262L275.928 479.818L282.086 476.262L275.915 472.706Z" fill="white"/>
<path d="M282.086 476.25V479.818L275.928 483.374V479.818L282.086 476.25Z" fill="#CFA0EE"/>
<path d="M275.928 479.818V483.374L269.757 479.818V476.25L275.928 479.818Z" fill="#CFA0EE"/>
<path opacity="0.1" d="M275.928 479.818V483.374L269.757 479.818V476.25L275.928 479.818Z" fill="black"/>
<path d="M285.325 469.945L308.152 456.759C308.886 456.373 309.701 456.164 310.531 456.149C311.36 456.134 312.182 456.314 312.93 456.674C314.213 457.419 314.152 458.653 312.783 459.435L289.956 472.608C289.224 472.999 288.409 473.212 287.579 473.229C286.749 473.246 285.926 473.067 285.178 472.706C283.895 471.961 283.968 470.727 285.325 469.945Z" fill="#E0E0E0"/>
<path d="M289.797 480.71L283.638 484.266L289.797 487.822L295.956 484.266L289.797 480.71Z" fill="#455A64"/>
<path d="M295.956 484.266V487.835L289.797 491.391V487.822L295.956 484.266Z" fill="#37474F"/>
<path d="M289.797 487.822V491.391L283.638 487.835V484.266L289.797 487.822Z" fill="#263238"/>
<path d="M299.207 477.961L322.034 464.775C322.768 464.389 323.583 464.18 324.413 464.166C325.242 464.151 326.064 464.33 326.812 464.69C328.095 465.423 328.034 466.657 326.653 467.452L303.838 480.625C303.105 481.014 302.29 481.224 301.459 481.239C300.629 481.254 299.807 481.073 299.06 480.71C297.777 479.977 297.85 478.743 299.207 477.961Z" fill="#E0E0E0"/>
<path d="M482.971 287.756C491.44 287.756 495.46 290.2 498.515 298.241C501.57 306.282 509.647 324.942 509.806 330.465C509.977 336.197 491.476 353.573 492.185 353.28C492.38 353.182 486.552 342.746 486.552 342.746L496.939 330.025L490.987 312.759L482.971 287.756Z" fill="#FFA8A7"/>
<path d="M493.456 477.619C493.981 478.12 494.079 478.596 494.055 480.405C494.03 482.213 494.8 484.23 493.871 485.916C493.187 487.138 489.643 488.042 487.847 487.138C486.281 486.113 484.88 484.856 483.692 483.411C482.575 482.137 481.348 480.963 480.026 479.904C478.499 478.767 476.727 478.01 475.138 476.971C473.893 476.165 472.847 475.085 472.081 473.815C471.314 472.545 470.847 471.117 470.714 469.639C470.612 468.675 470.808 467.702 471.277 466.853C471.657 466.397 472.157 466.057 472.721 465.872C473.285 465.686 473.889 465.662 474.466 465.802C476.189 466.083 482.03 469.346 483.374 470.274C485.134 471.423 492.918 477.105 493.456 477.619Z" fill="#263238"/>
<path d="M484.877 470.14C484.816 471.435 479.354 468.405 477.118 468.698H477.057C474.967 469.7 476.702 472.621 478.633 474.111C480.564 475.602 486.894 480.221 486.894 480.221L488.189 472.731L484.877 470.14Z" fill="#FFA8A7"/>
<path d="M461.171 491.244C462.185 491.244 462.637 494.568 462.833 497.122C462.967 499.101 463.725 502.34 463.016 503.794C462.307 505.248 459.655 506.152 455.537 506.067C452.861 506.067 448.682 507.765 445.822 509.317C442.944 510.703 439.691 511.111 436.56 510.478C432.894 510.002 429.13 507.826 428.555 506.311C427.981 504.796 428.763 504.063 437.439 500.494C437.525 500.494 446.604 496.499 450.881 491.94L461.171 491.244Z" fill="#263238"/>
<path d="M437.476 500.494C436.254 500.983 435.24 501.423 434.323 501.814C434.091 502.633 434.409 503.941 438.246 504.576C444.087 505.554 461.268 492.613 461.268 492.613C461.268 492.613 458.824 493.297 458.348 491.892H450.881C446.604 496.499 437.476 500.458 437.476 500.494Z" fill="#FFA8A7"/>
<path d="M496.939 435.118C497.029 429.422 496.463 423.735 495.252 418.168C495.252 418.168 496.279 396.343 496.389 382.633C496.621 355.504 496.108 351.52 490.108 339.863C490.108 339.863 455.073 335.769 453.594 352.84C451.761 374.103 449.623 409.675 449.672 419.806C449.672 427.346 450.576 435.521 450.991 452.617C451.26 463.615 452.409 479.036 450.845 491.989C452.824 495.313 458.177 495.252 461.232 492.661C462.112 479.977 468.417 455.684 469.395 447.215C469.925 441.098 469.67 434.938 468.637 428.885C468.637 428.885 473.281 392.665 474.099 387.154C475.288 392.982 475.967 398.903 476.128 404.849C476.128 407.293 476.959 415.321 478.34 428.885C479.183 437.146 485.024 469.431 486.295 479.806C489.228 482.641 493.016 480.686 493.187 479.464C494.165 466.804 496.939 443.024 496.939 435.118Z" fill="#FFA8A7"/>
<path opacity="0.15" d="M474.136 387.117L477.228 369.533C482.501 368.718 487.355 366.173 491.024 362.299C491.024 362.299 489.167 369.325 480.026 371.72L476.36 387.606L475.749 402.111L474.136 387.117Z" fill="black"/>
<path d="M465.313 281.854L466.767 297.789L480.771 296.946L479.696 279.264L465.313 281.854Z" fill="#FFA8A7"/>
<path d="M493.419 344.103C491.814 339.863 489.766 335.804 487.309 331.993C493.297 312.71 495.215 306.221 494.055 297.972C493.309 292.73 489.167 287.488 484.083 287.769H480.246C480.026 291.435 469.871 291.594 466.022 289.076L462.466 289.174C459.961 290.066 451.468 302.616 450.49 310.865C449.72 317.598 455.012 323.439 455.012 323.439C455.031 326.298 454.864 329.156 454.511 331.993C454.511 331.993 454.511 348.307 454.511 356.433C454.511 356.433 456.478 362.69 477.032 360.734C495.362 358.999 495.753 352.755 495.753 352.755C495.315 349.79 494.532 346.886 493.419 344.103Z" fill="#CFA0EE"/>
<g opacity="0.3">
<path d="M493.419 344.103C491.814 339.863 489.766 335.804 487.309 331.993C493.297 312.71 495.215 306.221 494.055 297.972C493.309 292.73 489.167 287.488 484.083 287.769H480.246C480.026 291.435 469.871 291.594 466.022 289.076L462.466 289.174C459.961 290.066 451.468 302.616 450.49 310.865C449.72 317.598 455.012 323.439 455.012 323.439C455.031 326.298 454.864 329.156 454.511 331.993C454.511 331.993 454.511 348.307 454.511 356.433C454.511 356.433 456.478 362.69 477.032 360.734C495.362 358.999 495.753 352.755 495.753 352.755C495.315 349.79 494.532 346.886 493.419 344.103Z" fill="black"/>
</g>
<path d="M467.427 244.559C465.362 244.288 463.261 244.517 461.302 245.227C459.344 245.937 457.584 247.108 456.173 248.64C449.012 256.706 456.869 262.644 456.869 262.644L467.427 244.559Z" fill="#263238"/>
<path d="M454.975 264.331C454.975 264.331 451.859 269.011 452.262 269.512C452.985 269.992 453.788 270.339 454.633 270.539L454.975 264.331Z" fill="#F28F8F"/>
<path d="M464.482 249.508C461.464 251.06 456.246 253.919 454.877 265.015C453.472 276.416 456.002 280.376 457.553 281.879C458.592 282.893 464.006 283.272 466.828 282.404C470.372 281.317 478.034 277.516 481.627 271.675C485.867 264.771 486.771 255.545 481.908 251.915C475.065 246.844 467.036 248.2 464.482 249.508Z" fill="#FFA8A7"/>
<path d="M462.979 262.62C456.661 259.406 458.274 251.023 458.274 251.023C458.274 251.023 467.293 238.131 483.936 246.465C489.692 249.349 493.15 255.899 493.016 263.573C493.016 268.363 491.113 272.957 487.726 276.344C484.339 279.731 479.745 281.634 474.955 281.634C472.161 281.634 469.482 280.525 467.506 278.549C465.531 276.574 464.421 273.894 464.421 271.101V270.404L464.959 270.575C465.818 270.778 466.714 270.765 467.567 270.537C468.421 270.309 469.204 269.873 469.847 269.268C472.621 266.824 472.951 262.192 469.444 261.019C465.936 259.846 464.116 263.952 464.116 263.952L462.759 267.618C462.432 267.499 462.131 267.317 461.874 267.082C461.617 266.847 461.409 266.564 461.261 266.248C461.114 265.933 461.03 265.592 461.014 265.244C460.999 264.896 461.052 264.548 461.171 264.221C461.318 263.827 461.561 263.475 461.876 263.196C462.191 262.916 462.57 262.719 462.979 262.62Z" fill="#263238"/>
<path d="M424.792 265.186L394.755 280.229L408.881 320.934L436.938 305.83L424.792 265.186Z" fill="#CFA0EE"/>
<path d="M423.362 269.121L398.164 281.744L410.678 316.755L434.213 304.082L423.362 269.121Z" fill="#F5F5F5"/>
<path opacity="0.15" d="M418.034 272.787L417.57 271.565C417.313 270.881 415.223 271.259 412.902 272.408L408.466 274.596C406.156 275.744 404.482 277.235 404.739 277.932L405.203 279.154L418.034 272.787Z" fill="black"/>
<path d="M417.631 267.838C417.472 267.398 416.568 267.459 415.602 267.96L413.867 268.852C413.867 268.852 412.853 266.164 408.857 267.948C404.861 269.732 405.716 272.836 405.716 272.836L403.871 273.814C402.857 274.351 402.124 275.146 402.234 275.573L402.441 276.368L417.924 268.632L417.631 267.838Z" fill="#37474F"/>
<path d="M415.944 269.598C414.502 270.282 413.94 270.612 414.331 271.675C414.722 272.738 415.199 273.752 415.199 273.752L408.356 277.186C408.356 277.186 407.818 275.646 407.574 275.06C407.329 274.473 406.853 274.168 405.765 274.718L405.362 274.278L416.164 269.011L415.944 269.598Z" fill="#263238"/>
<path d="M418.315 272.86L417.863 271.638C417.606 270.954 415.517 271.321 413.195 272.469L408.759 274.669C406.437 275.818 404.775 277.308 405.032 277.993L405.484 279.215L418.315 272.86Z" fill="#37474F"/>
<path d="M462.429 289.174C457.7 289.101 454.841 289.516 448.388 299.097C441.936 308.677 429.961 326.274 428.568 328.608C426.612 331.785 426.124 336.661 427.761 339.606C429.24 342.38 431.855 343.345 439.297 335.439C444.796 329.586 456.405 314.042 456.405 314.042C456.405 314.042 465.386 297.288 462.429 289.174Z" fill="#FFA8A7"/>
<path d="M430.694 341.647C426.796 342.869 412.486 325.834 408.515 320.714C405.319 316.448 401.562 312.634 397.346 309.374C391.834 305.158 392.751 298.84 395.28 293.084C396.16 291.08 398.946 292.437 398.946 292.437L399.912 295.211L401.574 300.013C402.735 301.125 403.407 301.492 403.48 301.162C403.639 300.551 402.673 297.972 402.735 295.296C402.82 292.082 405.044 294.233 405.692 295.37C406.583 297.1 407.347 298.893 407.977 300.734C409.052 303.63 408.539 306.526 409.883 308.518C411.227 310.51 430.657 326.641 430.657 326.641L430.694 341.647Z" fill="#FFA8A7"/>
<path d="M487.358 331.993C487.358 331.993 473.659 340.083 454.474 331.993C452.763 342.057 451.601 352.206 450.991 362.396C450.307 375.374 448.804 403.223 448.804 403.223C448.804 403.223 454.462 409.834 474.674 408.49C494.103 407.268 497.525 402.136 497.525 402.136C497.525 402.136 497.525 377.121 497.672 366.184C497.806 352.205 495.851 344.604 487.358 331.993Z" fill="#CFA0EE"/>
<path opacity="0.5" d="M487.358 331.993C487.358 331.993 473.659 340.083 454.474 331.993C452.763 342.057 451.601 352.206 450.991 362.396C450.307 375.374 448.804 403.223 448.804 403.223C448.804 403.223 454.462 409.834 474.674 408.49C494.103 407.268 497.525 402.136 497.525 402.136C497.525 402.136 497.525 377.121 497.672 366.184C497.806 352.205 495.851 344.604 487.358 331.993Z" fill="black"/>
<path d="M493.688 258.196L496.902 255.264C496.47 254.799 495.894 254.494 495.268 254.398C494.641 254.302 494 254.421 493.45 254.735C492.899 255.05 492.471 255.541 492.234 256.129C491.998 256.718 491.968 257.369 492.148 257.976C491.757 257.976 491.354 257.915 490.926 257.915V283.675C490.926 287.23 492.334 290.639 494.842 293.158C497.349 295.678 500.753 297.101 504.307 297.117V271.284C504.295 268.219 503.235 265.25 501.303 262.869C499.372 260.489 496.685 258.84 493.688 258.196Z" fill="#263238"/>
</svg>
