<svg width="72" height="58" viewBox="0 0 72 58" fill="none" xmlns="http://www.w3.org/2000/svg">
<path d="M62.4 0H0V48H62.4V0ZM57.6 43.2H4.8V4.8H57.6V43.2Z" fill="url(#paint0_linear_83_1445)"/>
<path d="M67.2 12V52.8H12V57.6H72V12H67.2Z" fill="url(#paint1_linear_83_1445)"/>
<path d="M31.2 35.769C37.155 35.769 42 30.4984 42 24.0201C42 17.5417 37.155 12.2712 31.2 12.2712C25.245 12.2712 20.4 17.5416 20.4 24.0201C20.4 30.4986 25.245 35.769 31.2 35.769ZM31.2 17.0712C34.5084 17.0712 37.2 20.1885 37.2 24.0201C37.2 27.8517 34.5084 30.969 31.2 30.969C27.8916 30.969 25.2 27.8517 25.2 24.0201C25.2 20.1885 27.8916 17.0712 31.2 17.0712Z" fill="url(#paint2_linear_83_1445)"/>
<path d="M14.4 10.8H9.59998V37.2H14.4V10.8Z" fill="url(#paint3_linear_83_1445)"/>
<path d="M52.8 10.8H48V37.2H52.8V10.8Z" fill="url(#paint4_linear_83_1445)"/>
<defs>
<linearGradient id="paint0_linear_83_1445" x1="-3.08329e-07" y1="28.7489" x2="62.403" y2="28.4285" gradientUnits="userSpaceOnUse">
<stop stop-color="#582C6E"/>
<stop offset="0.348958" stop-color="#603596"/>
<stop offset="0.635417" stop-color="#5F559D"/>
<stop offset="1" stop-color="#5B9AAE"/>
</linearGradient>
<linearGradient id="paint1_linear_83_1445" x1="12" y1="39.3114" x2="72.0029" y2="38.9996" gradientUnits="userSpaceOnUse">
<stop stop-color="#582C6E"/>
<stop offset="0.348958" stop-color="#603596"/>
<stop offset="0.635417" stop-color="#5F559D"/>
<stop offset="1" stop-color="#5B9AAE"/>
</linearGradient>
<linearGradient id="paint2_linear_83_1445" x1="20.4" y1="26.3448" x2="42.0014" y2="26.2664" gradientUnits="userSpaceOnUse">
<stop stop-color="#582C6E"/>
<stop offset="0.348958" stop-color="#603596"/>
<stop offset="0.635417" stop-color="#5F559D"/>
<stop offset="1" stop-color="#5B9AAE"/>
</linearGradient>
<linearGradient id="paint3_linear_83_1445" x1="9.59998" y1="26.6119" x2="14.4003" y2="26.6084" gradientUnits="userSpaceOnUse">
<stop stop-color="#582C6E"/>
<stop offset="0.348958" stop-color="#603596"/>
<stop offset="0.635417" stop-color="#5F559D"/>
<stop offset="1" stop-color="#5B9AAE"/>
</linearGradient>
<linearGradient id="paint4_linear_83_1445" x1="48" y1="26.6119" x2="52.8004" y2="26.6084" gradientUnits="userSpaceOnUse">
<stop stop-color="#582C6E"/>
<stop offset="0.348958" stop-color="#603596"/>
<stop offset="0.635417" stop-color="#5F559D"/>
<stop offset="1" stop-color="#5B9AAE"/>
</linearGradient>
</defs>
</svg>
