<svg width="69" height="72" viewBox="0 0 69 72" fill="none" xmlns="http://www.w3.org/2000/svg">
<path d="M66.8717 29.2871L36.5291 1.37185C35.5428 0.46435 34.2438 -0.0267777 32.9037 0.0011272C31.5636 0.0290321 30.2862 0.573809 29.3385 1.52159L1.43212 29.4281L0 30.8601V72H26.8913V46.331H41.5594V72H68.4507V30.7398L66.8717 29.2871ZM33.0088 4.88943C33.0519 4.88943 33.0253 4.89875 33.0068 4.91693C32.9877 4.89875 32.9657 4.88943 33.0088 4.88943ZM63.5614 67.1107H46.4487V46.331C46.4487 45.0343 45.9336 43.7906 45.0166 42.8737C44.0997 41.9568 42.8561 41.4416 41.5594 41.4416H26.8913C25.5946 41.4416 24.351 41.9568 23.4341 42.8737C22.5171 43.7906 22.002 45.0343 22.002 46.331V67.1107H4.88934V32.8853L33.0088 4.97881C33.0108 4.97697 33.011 4.97529 33.0125 4.97346L63.5614 32.8853V67.1107Z" fill="url(#paint0_linear_83_1423)"/>
<defs>
<linearGradient id="paint0_linear_83_1423" x1="-3.38226e-07" y1="43.1233" x2="68.4549" y2="42.8662" gradientUnits="userSpaceOnUse">
<stop stop-color="#582C6E"/>
<stop offset="0.348958" stop-color="#603596"/>
<stop offset="0.635417" stop-color="#5F559D"/>
<stop offset="1" stop-color="#5B9AAE"/>
</linearGradient>
</defs>
</svg>
