<svg width="69" height="78" viewBox="0 0 69 78" fill="none" xmlns="http://www.w3.org/2000/svg">
<path d="M10.0208 62.3996H68.8996V0H9.85833C7.24632 0.00839811 4.74369 1.04974 2.89671 2.89671C1.04974 4.74369 0.00839811 7.24632 0 9.85833V67.3152H0.00178775C0.00178775 67.3397 0 67.364 0 67.3888C0 73.1413 4.51455 78 9.85833 78H68.8996V72.7995H9.85833C7.42035 72.7995 5.19997 70.2205 5.19997 67.3883C5.19997 64.6843 7.40752 62.3996 10.0208 62.3996ZM51.9997 5.25408V33.3365L44.1347 26.4319L36.3998 33.296V5.25408H51.9997ZM31.1998 5.19997V40.2997H36.3414L44.1536 33.3677L52.0492 40.2997H57.1996V5.19997H63.6996V57.1996H15.6129L15.5999 5.19997H31.1998ZM9.85833 5.19997H10.3999L10.4123 57.1996H10.0202C8.32935 57.2 6.66788 57.6415 5.19997 58.4806V9.89895C5.19599 8.65852 5.68421 7.46715 6.55752 6.58623C7.43082 5.70531 8.6179 5.20676 9.85833 5.19997Z" fill="url(#paint0_linear_83_1434)"/>
<defs>
<linearGradient id="paint0_linear_83_1434" x1="-3.40444e-07" y1="46.7169" x2="68.9039" y2="46.4765" gradientUnits="userSpaceOnUse">
<stop stop-color="#582C6E"/>
<stop offset="0.348958" stop-color="#603596"/>
<stop offset="0.635417" stop-color="#5F559D"/>
<stop offset="1" stop-color="#5B9AAE"/>
</linearGradient>
</defs>
</svg>
