<svg width="72" height="65" viewBox="0 0 72 65" fill="none" xmlns="http://www.w3.org/2000/svg">
<path d="M68.4 0H3.6C2.64556 0.00111157 1.73053 0.380753 1.05564 1.05564C0.380753 1.73053 0.00111157 2.64556 0 3.6V61.2C0.00111157 62.1544 0.380753 63.0695 1.05564 63.7444C1.73053 64.4193 2.64556 64.7989 3.6 64.8H68.4C69.3544 64.7989 70.2695 64.4193 70.9444 63.7444C71.6192 63.0695 71.9989 62.1544 72 61.2V3.6C71.9989 2.64556 71.6192 1.73053 70.9444 1.05564C70.2695 0.380753 69.3544 0.00111157 68.4 0ZM67.2 60H4.8V4.8H67.2V60Z" fill="url(#paint0_linear_83_1431)"/>
<path d="M20.3994 30H25.1994V24H31.1994V19.2H25.1994V13.2H20.3994V19.2H14.3994V24H20.3994V30Z" fill="url(#paint1_linear_83_1431)"/>
<path d="M27.0428 36.7633L22.8002 41.0059L18.5576 36.7633L15.1636 40.1574L19.4062 44.4L15.1636 48.6426L18.5576 52.0366L22.8002 47.794L27.0428 52.0366L30.4369 48.6426L26.1943 44.4L30.4369 40.1574L27.0428 36.7633Z" fill="url(#paint2_linear_83_1431)"/>
<path d="M57.5997 19.2H40.7997V24H57.5997V19.2Z" fill="url(#paint3_linear_83_1431)"/>
<path d="M57.5997 37.2H40.7997V42H57.5997V37.2Z" fill="url(#paint4_linear_83_1431)"/>
<path d="M57.5997 46.8H40.7997V51.6H57.5997V46.8Z" fill="url(#paint5_linear_83_1431)"/>
<defs>
<linearGradient id="paint0_linear_83_1431" x1="-3.55764e-07" y1="38.811" x2="72.004" y2="38.495" gradientUnits="userSpaceOnUse">
<stop stop-color="#582C6E"/>
<stop offset="0.348958" stop-color="#603596"/>
<stop offset="0.635417" stop-color="#5F559D"/>
<stop offset="1" stop-color="#5B9AAE"/>
</linearGradient>
<linearGradient id="paint1_linear_83_1431" x1="14.3994" y1="23.2621" x2="31.2004" y2="23.1957" gradientUnits="userSpaceOnUse">
<stop stop-color="#582C6E"/>
<stop offset="0.348958" stop-color="#603596"/>
<stop offset="0.635417" stop-color="#5F559D"/>
<stop offset="1" stop-color="#5B9AAE"/>
</linearGradient>
<linearGradient id="paint2_linear_83_1431" x1="15.1636" y1="45.911" x2="30.4378" y2="45.8507" gradientUnits="userSpaceOnUse">
<stop stop-color="#582C6E"/>
<stop offset="0.348958" stop-color="#603596"/>
<stop offset="0.635417" stop-color="#5F559D"/>
<stop offset="1" stop-color="#5B9AAE"/>
</linearGradient>
<linearGradient id="paint3_linear_83_1431" x1="40.7997" y1="22.0749" x2="57.5977" y2="21.8427" gradientUnits="userSpaceOnUse">
<stop stop-color="#582C6E"/>
<stop offset="0.348958" stop-color="#603596"/>
<stop offset="0.635417" stop-color="#5F559D"/>
<stop offset="1" stop-color="#5B9AAE"/>
</linearGradient>
<linearGradient id="paint4_linear_83_1431" x1="40.7997" y1="40.0748" x2="57.5977" y2="39.8426" gradientUnits="userSpaceOnUse">
<stop stop-color="#582C6E"/>
<stop offset="0.348958" stop-color="#603596"/>
<stop offset="0.635417" stop-color="#5F559D"/>
<stop offset="1" stop-color="#5B9AAE"/>
</linearGradient>
<linearGradient id="paint5_linear_83_1431" x1="40.7997" y1="49.6749" x2="57.5977" y2="49.4427" gradientUnits="userSpaceOnUse">
<stop stop-color="#582C6E"/>
<stop offset="0.348958" stop-color="#603596"/>
<stop offset="0.635417" stop-color="#5F559D"/>
<stop offset="1" stop-color="#5B9AAE"/>
</linearGradient>
</defs>
</svg>
