<svg width="72" height="72" viewBox="0 0 72 72" fill="none" xmlns="http://www.w3.org/2000/svg">
<path d="M64.8308 56.476C69.4087 52.396 72.0008 46.9578 72.0008 41.3143C72.0008 35.3167 69.1931 29.7076 64.0948 25.5193C59.1328 21.4444 52.5649 19.2 45.6001 19.2C38.6353 19.2 32.0674 21.4444 27.1061 25.5196C22.0078 29.7076 19.2001 35.3167 19.2001 41.3143C19.2001 47.3119 22.0078 52.921 27.1061 57.1093C32.0674 61.1845 38.6353 63.4288 45.6001 63.4288C46.5281 63.4288 47.4619 63.3879 48.3878 63.3064L49.9697 64.6776C55.4195 69.4 62.3889 71.9997 69.6001 72H72.0001V66.8914L71.2972 66.1887C68.5243 63.4076 66.3269 60.1071 64.8308 56.476ZM53.1134 61.05L49.9393 58.2988L48.8809 58.4286C47.7923 58.5617 46.6967 58.6284 45.6001 58.6285C33.6901 58.6285 24.0001 50.8614 24.0001 41.3143C24.0001 31.7673 33.6901 24 45.6001 24C57.5101 24 67.2001 31.7671 67.2001 41.3143C67.2001 46.0708 64.8271 50.5114 60.5182 53.818L59.1359 54.8787L59.7737 56.6839C61.0808 60.3709 63.002 63.8102 65.456 66.8565C60.8859 66.0936 56.6149 64.0843 53.1134 61.05Z" fill="url(#paint0_linear_83_1438)"/>
<path d="M6.62775 45.2214C8.87434 42.3776 10.6383 39.1839 11.849 35.7679L12.482 33.9717L11.1009 32.9118C7.0377 29.7939 4.8 25.6092 4.8 21.1285C4.8 12.1249 13.9514 4.8 25.2 4.8C33.4752 4.8 40.6151 8.7645 43.8116 14.445C44.4051 14.4162 45.0012 14.4 45.6 14.4C46.8027 14.4 47.9944 14.4583 49.1751 14.575C47.9399 11.3748 45.7946 8.4534 42.8451 6.0309C38.1108 2.14185 31.845 0 25.2 0C18.555 0 12.2892 2.14185 7.5546 6.0309C2.6829 10.0328 0 15.3945 0 21.1285C0 26.4985 2.4528 31.6728 6.7875 35.565C5.37291 38.9692 3.30593 42.0638 0.70305 44.6744L0 45.3773V50.4H2.4C6.83806 50.3994 11.2151 49.3659 15.1847 47.3812C14.7494 45.7314 14.4943 44.0393 14.424 42.3345C12.0147 43.7466 9.3757 44.7238 6.62775 45.2214Z" fill="url(#paint1_linear_83_1438)"/>
<defs>
<linearGradient id="paint0_linear_83_1438" x1="19.2001" y1="50.8237" x2="72.004" y2="50.6151" gradientUnits="userSpaceOnUse">
<stop stop-color="#582C6E"/>
<stop offset="0.348958" stop-color="#603596"/>
<stop offset="0.635417" stop-color="#5F559D"/>
<stop offset="1" stop-color="#5B9AAE"/>
</linearGradient>
<linearGradient id="paint1_linear_83_1438" x1="-2.42982e-07" y1="30.1863" x2="49.1781" y2="29.9968" gradientUnits="userSpaceOnUse">
<stop stop-color="#582C6E"/>
<stop offset="0.348958" stop-color="#603596"/>
<stop offset="0.635417" stop-color="#5F559D"/>
<stop offset="1" stop-color="#5B9AAE"/>
</linearGradient>
</defs>
</svg>
