<svg width="73" height="72" viewBox="0 0 73 72" fill="none" xmlns="http://www.w3.org/2000/svg">
<path d="M67.1164 45.056L57.4688 38.7436L61.1834 31.9337C62.0793 30.2333 62.5487 28.3407 62.5511 26.4187V15.6231C62.5586 12.5876 61.6794 9.616 60.0216 7.07319C58.3637 4.53039 55.9994 2.52708 53.2189 1.30925C50.4384 0.0914189 47.3628 -0.287907 44.3697 0.217849C41.3767 0.723606 38.5965 2.09243 36.3705 4.15623L39.6313 7.67634C41.1738 6.25023 43.0988 5.30518 45.1704 4.95706C47.242 4.60893 49.3702 4.87287 51.294 5.71651C53.2179 6.56014 54.8537 7.94681 56.001 9.7065C57.1483 11.4662 57.7572 13.5224 57.7531 15.6231V26.4187C57.7526 27.5378 57.4845 28.6407 56.9711 29.6351L51.1361 40.333L64.4894 49.0705C65.3708 49.6473 66.0941 50.4353 66.5936 51.3629C67.093 52.2904 67.3527 53.328 67.3491 54.3815V62.4039H56.5536V67.202H72.1472V54.3813C72.152 52.5309 71.6943 50.7085 70.8158 49.08C69.9372 47.4514 68.6656 46.0682 67.1164 45.056Z" fill="url(#paint0_linear_83_1420)"/>
<path d="M45.5252 49.8541L35.8777 43.5416L39.5921 36.7317C40.488 35.0313 40.9574 33.1387 40.9598 31.2167V20.4211C40.9567 16.2831 39.3124 12.3154 36.3876 9.38826C33.4627 6.46114 29.4962 4.81372 25.3583 4.8074C16.7642 4.8074 9.77261 11.8118 9.77261 20.4211V31.2167C9.76345 33.1378 10.2277 35.0316 11.1243 36.7307L14.859 43.5775L5.26756 49.8541C3.72021 50.8646 2.44969 52.2455 1.57131 53.8715C0.692922 55.4975 0.234474 57.3171 0.237567 59.1652L0.162598 72H50.5559V59.1793C50.5607 57.3289 50.1031 55.5066 49.2245 53.878C48.3459 52.2494 47.0743 50.8662 45.5252 49.8541ZM45.7579 67.202H4.98852L5.035 59.1793C5.03138 58.1259 5.29109 57.0883 5.79053 56.1607C6.28997 55.2332 7.0133 54.4452 7.89478 53.8684L21.1916 45.1676L15.3364 34.4332C14.8288 33.4372 14.5663 32.3345 14.5706 31.2167V20.4211C14.5706 17.5579 15.708 14.812 17.7326 12.7875C19.7572 10.7629 22.5031 9.62553 25.3662 9.62553C28.2294 9.62553 30.9753 10.7629 32.9999 12.7875C35.0244 14.812 36.1618 17.5579 36.1618 20.4211V31.2167C36.1613 32.3359 35.8932 33.4387 35.3799 34.4332L29.5449 45.131L42.8981 53.8685C43.7795 54.4454 44.5029 55.2334 45.0023 56.1609C45.5017 57.0884 45.7615 58.1261 45.7579 59.1795V67.202Z" fill="url(#paint1_linear_83_1420)"/>
<defs>
<linearGradient id="paint0_linear_83_1420" x1="36.3705" y1="40.2496" x2="72.1497" y2="40.1743" gradientUnits="userSpaceOnUse">
<stop stop-color="#582C6E"/>
<stop offset="0.348958" stop-color="#603596"/>
<stop offset="0.635417" stop-color="#5F559D"/>
<stop offset="1" stop-color="#5B9AAE"/>
</linearGradient>
<linearGradient id="paint1_linear_83_1420" x1="0.162597" y1="45.0514" x2="50.5593" y2="44.9021" gradientUnits="userSpaceOnUse">
<stop stop-color="#582C6E"/>
<stop offset="0.348958" stop-color="#603596"/>
<stop offset="0.635417" stop-color="#5F559D"/>
<stop offset="1" stop-color="#5B9AAE"/>
</linearGradient>
</defs>
</svg>
